<mxfile host="app.diagrams.net" modified="2023-09-10T14:31:16.686Z" agent="Mozilla/5.0 (Windows NT 10.0; Win64; x64) AppleWebKit/537.36 (KHTML, like Gecko) Chrome/116.0.0.0 Safari/537.36" etag="1aBXueWQIer3MZ7-DNin" version="21.7.4" type="github">
  <diagram id="R2lEEEUBdFMjLlhIrx00" name="Page-1">
    <mxGraphModel dx="1004" dy="1734" grid="1" gridSize="10" guides="1" tooltips="1" connect="1" arrows="1" fold="1" page="1" pageScale="1" pageWidth="850" pageHeight="1100" math="0" shadow="0" extFonts="Permanent Marker^https://fonts.googleapis.com/css?family=Permanent+Marker">
      <root>
        <mxCell id="0" />
        <mxCell id="1" parent="0" />
        <mxCell id="mu894G1siszi2UIuHrlw-2" value="&lt;font style=&quot;font-size: 24px;&quot;&gt;לקוח&lt;/font&gt;&lt;br&gt;&lt;br&gt;&lt;br&gt;בן אדם&lt;br&gt;כסף&lt;br&gt;&lt;br&gt;&lt;br&gt;&lt;br&gt;&lt;br&gt;" style="whiteSpace=wrap;html=1;" vertex="1" parent="1">
          <mxGeometry x="220" y="20" width="155" height="90" as="geometry" />
        </mxCell>
        <mxCell id="mu894G1siszi2UIuHrlw-3" value="&lt;font style=&quot;font-size: 24px;&quot;&gt;חנות&lt;/font&gt;&lt;br&gt;&lt;br&gt;&lt;br&gt;סחורה&lt;br&gt;כסף&lt;br&gt;עובדים&lt;br&gt;&lt;br&gt;&lt;br&gt;" style="rounded=0;whiteSpace=wrap;html=1;" vertex="1" parent="1">
          <mxGeometry x="590" y="20" width="170" height="90" as="geometry" />
        </mxCell>
        <mxCell id="mu894G1siszi2UIuHrlw-4" value="&lt;font style=&quot;font-size: 24px;&quot;&gt;עובדים&lt;br&gt;&lt;/font&gt;&lt;br&gt;&lt;br&gt;&lt;br&gt;בן אדם&lt;br&gt;שכר מבוקש&lt;br&gt;&lt;br&gt;&lt;br&gt;&lt;br&gt;" style="rounded=0;whiteSpace=wrap;html=1;" vertex="1" parent="1">
          <mxGeometry x="230" y="260" width="180" height="90" as="geometry" />
        </mxCell>
        <mxCell id="mu894G1siszi2UIuHrlw-5" value="&lt;font style=&quot;font-size: 24px;&quot;&gt;סחורה&lt;/font&gt;&lt;br&gt;&lt;br&gt;&lt;br&gt;משחקים&lt;br&gt;פרטי לבוש&lt;br&gt;אביזרי ספורט&lt;br&gt;&lt;br&gt;&lt;br&gt;&lt;br&gt;" style="rounded=0;whiteSpace=wrap;html=1;" vertex="1" parent="1">
          <mxGeometry x="580" y="255" width="170" height="100" as="geometry" />
        </mxCell>
        <mxCell id="mu894G1siszi2UIuHrlw-6" value="&lt;font style=&quot;font-size: 24px;&quot;&gt;בני אדם&lt;br&gt;&lt;/font&gt;תז&lt;br style=&quot;border-color: var(--border-color);&quot;&gt;תאריך לידה&lt;br style=&quot;border-color: var(--border-color);&quot;&gt;שם" style="rounded=0;whiteSpace=wrap;html=1;" vertex="1" parent="1">
          <mxGeometry y="150" width="140" height="90" as="geometry" />
        </mxCell>
        <mxCell id="mu894G1siszi2UIuHrlw-8" value="בן אדם" style="rhombus;whiteSpace=wrap;html=1;" vertex="1" parent="1">
          <mxGeometry x="100" y="40" width="80" height="70" as="geometry" />
        </mxCell>
        <mxCell id="mu894G1siszi2UIuHrlw-10" value="בן אדם" style="rhombus;whiteSpace=wrap;html=1;" vertex="1" parent="1">
          <mxGeometry x="100" y="270" width="80" height="80" as="geometry" />
        </mxCell>
        <mxCell id="mu894G1siszi2UIuHrlw-53" value="" style="edgeStyle=orthogonalEdgeStyle;rounded=0;orthogonalLoop=1;jettySize=auto;html=1;" edge="1" parent="1" source="mu894G1siszi2UIuHrlw-14" target="mu894G1siszi2UIuHrlw-3">
          <mxGeometry relative="1" as="geometry" />
        </mxCell>
        <mxCell id="mu894G1siszi2UIuHrlw-14" value="כסף" style="rhombus;whiteSpace=wrap;html=1;" vertex="1" parent="1">
          <mxGeometry x="440" y="25" width="80" height="80" as="geometry" />
        </mxCell>
        <mxCell id="mu894G1siszi2UIuHrlw-16" value="עובדים" style="rhombus;whiteSpace=wrap;html=1;" vertex="1" parent="1">
          <mxGeometry x="450" y="150" width="80" height="80" as="geometry" />
        </mxCell>
        <mxCell id="mu894G1siszi2UIuHrlw-19" value="סחורה" style="rhombus;whiteSpace=wrap;html=1;" vertex="1" parent="1">
          <mxGeometry x="660" y="150" width="50" height="60" as="geometry" />
        </mxCell>
        <mxCell id="mu894G1siszi2UIuHrlw-22" value="" style="endArrow=classic;html=1;rounded=0;entryX=0;entryY=0.5;entryDx=0;entryDy=0;" edge="1" parent="1" target="mu894G1siszi2UIuHrlw-3">
          <mxGeometry relative="1" as="geometry">
            <mxPoint x="520" y="65" as="sourcePoint" />
            <mxPoint x="610" y="64.47" as="targetPoint" />
          </mxGeometry>
        </mxCell>
        <mxCell id="mu894G1siszi2UIuHrlw-23" value="Label" style="edgeLabel;resizable=0;html=1;align=center;verticalAlign=middle;" connectable="0" vertex="1" parent="mu894G1siszi2UIuHrlw-22">
          <mxGeometry relative="1" as="geometry" />
        </mxCell>
        <mxCell id="mu894G1siszi2UIuHrlw-25" value="" style="endArrow=classic;html=1;rounded=0;exitX=1;exitY=0.5;exitDx=0;exitDy=0;entryX=0;entryY=0.5;entryDx=0;entryDy=0;" edge="1" parent="1" source="mu894G1siszi2UIuHrlw-2" target="mu894G1siszi2UIuHrlw-14">
          <mxGeometry relative="1" as="geometry">
            <mxPoint x="380" y="70" as="sourcePoint" />
            <mxPoint x="440" y="70" as="targetPoint" />
          </mxGeometry>
        </mxCell>
        <mxCell id="mu894G1siszi2UIuHrlw-26" value="Label" style="edgeLabel;resizable=0;html=1;align=center;verticalAlign=middle;" connectable="0" vertex="1" parent="mu894G1siszi2UIuHrlw-25">
          <mxGeometry relative="1" as="geometry" />
        </mxCell>
        <mxCell id="mu894G1siszi2UIuHrlw-27" value="" style="endArrow=classic;html=1;rounded=0;exitX=0.5;exitY=1;exitDx=0;exitDy=0;entryX=0.5;entryY=0;entryDx=0;entryDy=0;" edge="1" parent="1" source="mu894G1siszi2UIuHrlw-3" target="mu894G1siszi2UIuHrlw-19">
          <mxGeometry relative="1" as="geometry">
            <mxPoint x="690" y="140" as="sourcePoint" />
            <mxPoint x="790" y="140" as="targetPoint" />
          </mxGeometry>
        </mxCell>
        <mxCell id="mu894G1siszi2UIuHrlw-28" value="Label" style="edgeLabel;resizable=0;html=1;align=center;verticalAlign=middle;" connectable="0" vertex="1" parent="mu894G1siszi2UIuHrlw-27">
          <mxGeometry relative="1" as="geometry" />
        </mxCell>
        <mxCell id="mu894G1siszi2UIuHrlw-29" value="" style="endArrow=classic;html=1;rounded=0;entryX=0;entryY=1;entryDx=0;entryDy=0;exitX=1;exitY=0;exitDx=0;exitDy=0;" edge="1" parent="1" source="mu894G1siszi2UIuHrlw-16" target="mu894G1siszi2UIuHrlw-3">
          <mxGeometry relative="1" as="geometry">
            <mxPoint x="510" y="170" as="sourcePoint" />
            <mxPoint x="610" y="170" as="targetPoint" />
          </mxGeometry>
        </mxCell>
        <mxCell id="mu894G1siszi2UIuHrlw-30" value="Label" style="edgeLabel;resizable=0;html=1;align=center;verticalAlign=middle;" connectable="0" vertex="1" parent="mu894G1siszi2UIuHrlw-29">
          <mxGeometry relative="1" as="geometry" />
        </mxCell>
        <mxCell id="mu894G1siszi2UIuHrlw-31" value="" style="endArrow=classic;html=1;rounded=0;entryX=0.5;entryY=1;entryDx=0;entryDy=0;exitX=0.645;exitY=-0.027;exitDx=0;exitDy=0;exitPerimeter=0;" edge="1" parent="1" source="mu894G1siszi2UIuHrlw-5" target="mu894G1siszi2UIuHrlw-19">
          <mxGeometry relative="1" as="geometry">
            <mxPoint x="610" y="228.95" as="sourcePoint" />
            <mxPoint x="710" y="228.95" as="targetPoint" />
          </mxGeometry>
        </mxCell>
        <mxCell id="mu894G1siszi2UIuHrlw-32" value="Label" style="edgeLabel;resizable=0;html=1;align=center;verticalAlign=middle;" connectable="0" vertex="1" parent="mu894G1siszi2UIuHrlw-31">
          <mxGeometry relative="1" as="geometry" />
        </mxCell>
        <mxCell id="mu894G1siszi2UIuHrlw-33" value="" style="endArrow=classic;html=1;rounded=0;exitX=1;exitY=0;exitDx=0;exitDy=0;entryX=0;entryY=0.5;entryDx=0;entryDy=0;" edge="1" parent="1" source="mu894G1siszi2UIuHrlw-8" target="mu894G1siszi2UIuHrlw-2">
          <mxGeometry relative="1" as="geometry">
            <mxPoint x="120" y="10" as="sourcePoint" />
            <mxPoint x="220" y="10" as="targetPoint" />
          </mxGeometry>
        </mxCell>
        <mxCell id="mu894G1siszi2UIuHrlw-34" value="Label" style="edgeLabel;resizable=0;html=1;align=center;verticalAlign=middle;" connectable="0" vertex="1" parent="mu894G1siszi2UIuHrlw-33">
          <mxGeometry relative="1" as="geometry" />
        </mxCell>
        <mxCell id="mu894G1siszi2UIuHrlw-35" value="" style="endArrow=classic;html=1;rounded=0;" edge="1" parent="1">
          <mxGeometry relative="1" as="geometry">
            <mxPoint x="400" y="239.47" as="sourcePoint" />
            <mxPoint x="500" y="239.47" as="targetPoint" />
          </mxGeometry>
        </mxCell>
        <mxCell id="mu894G1siszi2UIuHrlw-36" value="Label" style="edgeLabel;resizable=0;html=1;align=center;verticalAlign=middle;" connectable="0" vertex="1" parent="mu894G1siszi2UIuHrlw-35">
          <mxGeometry relative="1" as="geometry" />
        </mxCell>
        <mxCell id="mu894G1siszi2UIuHrlw-37" value="" style="endArrow=classic;html=1;rounded=0;" edge="1" parent="1">
          <mxGeometry relative="1" as="geometry">
            <mxPoint x="410" y="249.47" as="sourcePoint" />
            <mxPoint x="510" y="249.47" as="targetPoint" />
          </mxGeometry>
        </mxCell>
        <mxCell id="mu894G1siszi2UIuHrlw-38" value="Label" style="edgeLabel;resizable=0;html=1;align=center;verticalAlign=middle;" connectable="0" vertex="1" parent="mu894G1siszi2UIuHrlw-37">
          <mxGeometry relative="1" as="geometry" />
        </mxCell>
        <mxCell id="mu894G1siszi2UIuHrlw-39" value="" style="endArrow=classic;html=1;rounded=0;" edge="1" parent="1">
          <mxGeometry relative="1" as="geometry">
            <mxPoint x="420" y="259.47" as="sourcePoint" />
            <mxPoint x="520" y="259.47" as="targetPoint" />
          </mxGeometry>
        </mxCell>
        <mxCell id="mu894G1siszi2UIuHrlw-40" value="Label" style="edgeLabel;resizable=0;html=1;align=center;verticalAlign=middle;" connectable="0" vertex="1" parent="mu894G1siszi2UIuHrlw-39">
          <mxGeometry relative="1" as="geometry" />
        </mxCell>
        <mxCell id="mu894G1siszi2UIuHrlw-41" value="" style="endArrow=classic;html=1;rounded=0;" edge="1" parent="1">
          <mxGeometry relative="1" as="geometry">
            <mxPoint x="430" y="269.47" as="sourcePoint" />
            <mxPoint x="530" y="269.47" as="targetPoint" />
          </mxGeometry>
        </mxCell>
        <mxCell id="mu894G1siszi2UIuHrlw-42" value="Label" style="edgeLabel;resizable=0;html=1;align=center;verticalAlign=middle;" connectable="0" vertex="1" parent="mu894G1siszi2UIuHrlw-41">
          <mxGeometry relative="1" as="geometry" />
        </mxCell>
        <mxCell id="mu894G1siszi2UIuHrlw-43" value="" style="endArrow=classic;html=1;rounded=0;" edge="1" parent="1">
          <mxGeometry relative="1" as="geometry">
            <mxPoint x="440" y="279.47" as="sourcePoint" />
            <mxPoint x="540" y="279.47" as="targetPoint" />
          </mxGeometry>
        </mxCell>
        <mxCell id="mu894G1siszi2UIuHrlw-44" value="Label" style="edgeLabel;resizable=0;html=1;align=center;verticalAlign=middle;" connectable="0" vertex="1" parent="mu894G1siszi2UIuHrlw-43">
          <mxGeometry relative="1" as="geometry" />
        </mxCell>
        <mxCell id="mu894G1siszi2UIuHrlw-45" value="" style="endArrow=classic;html=1;rounded=0;" edge="1" parent="1">
          <mxGeometry relative="1" as="geometry">
            <mxPoint x="450" y="289.47" as="sourcePoint" />
            <mxPoint x="550" y="289.47" as="targetPoint" />
          </mxGeometry>
        </mxCell>
        <mxCell id="mu894G1siszi2UIuHrlw-46" value="Label" style="edgeLabel;resizable=0;html=1;align=center;verticalAlign=middle;" connectable="0" vertex="1" parent="mu894G1siszi2UIuHrlw-45">
          <mxGeometry relative="1" as="geometry" />
        </mxCell>
        <mxCell id="mu894G1siszi2UIuHrlw-47" value="" style="endArrow=classic;html=1;rounded=0;" edge="1" parent="1">
          <mxGeometry relative="1" as="geometry">
            <mxPoint x="460" y="299.47" as="sourcePoint" />
            <mxPoint x="560" y="299.47" as="targetPoint" />
          </mxGeometry>
        </mxCell>
        <mxCell id="mu894G1siszi2UIuHrlw-48" value="Label" style="edgeLabel;resizable=0;html=1;align=center;verticalAlign=middle;" connectable="0" vertex="1" parent="mu894G1siszi2UIuHrlw-47">
          <mxGeometry relative="1" as="geometry" />
        </mxCell>
        <mxCell id="mu894G1siszi2UIuHrlw-49" value="" style="endArrow=classic;html=1;rounded=0;" edge="1" parent="1">
          <mxGeometry relative="1" as="geometry">
            <mxPoint x="470" y="309.47" as="sourcePoint" />
            <mxPoint x="570" y="309.47" as="targetPoint" />
          </mxGeometry>
        </mxCell>
        <mxCell id="mu894G1siszi2UIuHrlw-50" value="Label" style="edgeLabel;resizable=0;html=1;align=center;verticalAlign=middle;" connectable="0" vertex="1" parent="mu894G1siszi2UIuHrlw-49">
          <mxGeometry relative="1" as="geometry" />
        </mxCell>
        <mxCell id="mu894G1siszi2UIuHrlw-51" value="" style="endArrow=classic;html=1;rounded=0;" edge="1" parent="1">
          <mxGeometry relative="1" as="geometry">
            <mxPoint x="480" y="319.47" as="sourcePoint" />
            <mxPoint x="580" y="319.47" as="targetPoint" />
          </mxGeometry>
        </mxCell>
        <mxCell id="mu894G1siszi2UIuHrlw-52" value="Label" style="edgeLabel;resizable=0;html=1;align=center;verticalAlign=middle;" connectable="0" vertex="1" parent="mu894G1siszi2UIuHrlw-51">
          <mxGeometry relative="1" as="geometry" />
        </mxCell>
        <mxCell id="mu894G1siszi2UIuHrlw-55" value="" style="curved=1;endArrow=classic;html=1;rounded=0;entryX=0;entryY=1;entryDx=0;entryDy=0;exitX=1;exitY=0.5;exitDx=0;exitDy=0;" edge="1" parent="1" source="mu894G1siszi2UIuHrlw-6" target="mu894G1siszi2UIuHrlw-2">
          <mxGeometry width="50" height="50" relative="1" as="geometry">
            <mxPoint x="170" y="180" as="sourcePoint" />
            <mxPoint x="220" y="130" as="targetPoint" />
            <Array as="points">
              <mxPoint x="180" y="170" />
              <mxPoint x="170" y="130" />
            </Array>
          </mxGeometry>
        </mxCell>
      </root>
    </mxGraphModel>
  </diagram>
</mxfile>
